<?xml version="1.0" encoding="UTF-8" standalone="no"?>
<!-- Created with Inkscape (http://www.inkscape.org/) -->

<svg
   width="48"
   height="48"
   viewBox="0 0 12.7 12.7"
   version="1.1"
   id="svg1"
   xml:space="preserve"
   inkscape:version="1.4.2 (ebf0e94, 2025-05-08)"
   sodipodi:docname="portal_icon_1.svg"
   xmlns:inkscape="http://www.inkscape.org/namespaces/inkscape"
   xmlns:sodipodi="http://sodipodi.sourceforge.net/DTD/sodipodi-0.dtd"
   xmlns="http://www.w3.org/2000/svg"
   xmlns:svg="http://www.w3.org/2000/svg"><sodipodi:namedview
     id="namedview1"
     pagecolor="#505050"
     bordercolor="#eeeeee"
     borderopacity="1"
     inkscape:showpageshadow="0"
     inkscape:pageopacity="0"
     inkscape:pagecheckerboard="0"
     inkscape:deskcolor="#505050"
     inkscape:document-units="mm"
     inkscape:zoom="5.6568543"
     inkscape:cx="22.45064"
     inkscape:cy="31.02431"
     inkscape:window-width="1157"
     inkscape:window-height="1008"
     inkscape:window-x="0"
     inkscape:window-y="0"
     inkscape:window-maximized="0"
     inkscape:current-layer="layer1" /><defs
     id="defs1"><linearGradient
       id="swatch6"
       inkscape:swatch="solid"><stop
         style="stop-color:#00b1b9;stop-opacity:1;"
         offset="0"
         id="stop6" /></linearGradient></defs><g
     inkscape:label="Layer 1"
     inkscape:groupmode="layer"
     id="layer1"
     style="display:inline"
     transform="matrix(0.74533164,0,0,0.74533164,0.03952543,0.03952543)"><path
       sodipodi:type="spiral"
       style="display:inline;fill:none;fill-opacity:1;fill-rule:evenodd;stroke:#009696;stroke-width:1.05833;stroke-linecap:round;stroke-linejoin:miter;stroke-dasharray:none;stroke-dashoffset:0;stroke-opacity:1;paint-order:normal"
       id="path1"
       sodipodi:cx="8.4666662"
       sodipodi:cy="8.4666662"
       sodipodi:expansion="1"
       sodipodi:revolution="3"
       sodipodi:radius="7.7619252"
       sodipodi:argument="-17.201988"
       sodipodi:t0="0"
       d="M 8.4666662,8.4666662 C 8.4368184,8.8546905 7.9288914,8.6178695 7.8217443,8.4170572 7.5313825,7.8728683 8.0539794,7.2974365 8.5658843,7.1768224 9.4815621,6.9610721 10.286134,7.7493128 10.401432,8.6154933 10.570637,9.8866481 9.4865242,10.947382 8.2682301,11.046354 6.6444356,11.178267 5.3204176,9.7885831 5.2420568,8.218621 5.1434477,6.242984 6.8428245,4.6527516 8.7643205,4.5971349 11.09151,4.5297756 12.949467,6.5409594 12.981119,8.8139295 13.018421,11.492546 10.694204,13.619116 8.0697939,13.626041 5.0398091,13.634037 2.6440573,10.996011 2.6623692,8.0201849 2.6831763,4.6388624 5.6355316,1.9735414 8.9627566,2.0174473 12.6954,2.0667031 15.630567,5.3337546 15.560807,9.0123657 15.48336,13.096321 11.901345,16.301537 7.8713577,16.205729"
       transform="translate(-0.64547956,-0.64570218)" /></g></svg>
